<svg
    width="186"
    height="34"
    viewBox="0 0 186 34"
    fill="none"
    xmlns="http://www.w3.org/2000/svg"
  >
    <path
      d="M2.204 21.824L6.308 21.212L10.232 20.06L11.168 18.548L10.772 17L9.836 15.848C9.572 15.68 9.296 15.524 9.008 15.38C8.744 15.212 8.468 15.092 8.18 15.02C7.916 14.924 7.64 14.888 7.352 14.912C7.088 14.912 6.824 14.996 6.56 15.164L5.66 15.812L2.672 14.408L1.592 11.636L2.528 6.992L4.184 4.796C4.256 4.964 4.4 5.024 4.616 4.976C4.832 4.928 5.048 4.832 5.264 4.688C5.48 4.544 5.66 4.376 5.804 4.184C5.948 3.968 5.984 3.776 5.912 3.608C6.32 3.488 6.788 3.368 7.316 3.248C7.844 3.104 8.3 2.9 8.684 2.636L13.328 1.664L14.084 1.592L14.732 2.348L14.156 3.896L12.824 4.256L11.096 4.436L8.468 5.768L7.244 7.352C6.86 7.712 6.668 8.108 6.668 8.54C6.692 8.948 6.8 9.392 6.992 9.872C7.256 10.424 7.448 10.784 7.568 10.952C7.712 11.096 7.892 11.228 8.108 11.348L10.232 12.068C10.472 12.26 10.688 12.416 10.88 12.536C11.096 12.632 11.336 12.692 11.6 12.716C11.864 12.74 12.236 12.764 12.716 12.788C13.22 12.812 13.856 12.848 14.624 12.896C14.84 13.304 15.092 13.664 15.38 13.976C15.668 14.264 15.944 14.648 16.208 15.128L16.928 16.748L15.848 20.348L14.984 21.284L13.22 23.84H12.32C12.008 23.84 11.624 23.852 11.168 23.876C10.736 23.876 10.22 23.876 9.62 23.876C9.02 23.876 8.492 23.936 8.036 24.056C7.58 24.176 7.172 24.308 6.812 24.452C6.452 24.572 6.14 24.68 5.876 24.776C5.612 24.872 5.372 24.908 5.156 24.884L3.86 24.488L1.7 24.848L0.944 23.3L1.16 22.4L2.204 21.824ZM45.4397 23.912L43.4237 24.524L40.7957 24.848L40.5437 24.236L41.0837 22.148L41.7317 20.24L41.9117 13.436L41.0477 11.816H40.0037L38.3477 13.04H37.9517C37.6877 13.04 37.5197 13.196 37.4477 13.508C37.3997 13.796 37.3997 14.132 37.4477 14.516C37.2317 14.588 37.0757 14.948 36.9797 15.596L36.8357 16.604L36.7997 18.8L36.1517 21.68L36.4037 23.12L36.0797 24.416L35.7557 24.74L31.7597 25.028L30.9317 24.272L31.1837 22.868L31.6877 19.16C31.7837 18.728 31.8677 18.236 31.9397 17.684C32.0357 17.132 32.1077 16.58 32.1557 16.028C32.2037 15.452 32.2277 14.912 32.2277 14.408C32.2517 13.88 32.2517 13.448 32.2277 13.112C32.1797 12.848 32.1797 12.632 32.2277 12.464C32.2757 12.272 32.2877 12.128 32.2637 12.032L31.5797 11.384L29.3477 11.744L28.6277 11.132C28.0517 10.796 27.7517 11 27.7277 11.744C27.5837 11.96 27.4517 12.14 27.3317 12.284C27.2357 12.404 27.1757 12.596 27.1517 12.86C27.0317 12.908 26.9357 12.968 26.8637 13.04C26.7677 13.136 26.6717 13.28 26.5757 13.472C26.4797 13.664 26.4077 13.94 26.3597 14.3C26.2637 14.996 26.2157 15.584 26.2157 16.064C26.2157 16.544 26.2757 16.88 26.3957 17.072V17.72L25.7837 19.16L25.6037 21.716L25.2797 24.2L24.9917 24.524L20.6357 24.884L19.9157 24.236L20.1317 22.868L20.3477 20.996L20.4917 18.26C20.4917 17.804 20.5517 17.372 20.6717 16.964C20.7917 16.556 20.8997 16.1 20.9957 15.596L21.3557 12.752C21.5237 12.584 21.7037 12.284 21.8957 11.852C22.1117 11.42 22.2197 11 22.2197 10.592C22.2197 10.472 22.1957 10.388 22.1477 10.34C22.1237 10.268 22.0877 10.184 22.0397 10.088L22.5797 9.368C22.6277 9.368 22.7357 9.38 22.9037 9.404C23.0717 9.404 23.2637 9.404 23.4797 9.404C23.7197 9.38 23.9597 9.368 24.1997 9.368C24.4397 9.344 24.6677 9.308 24.8837 9.26C25.7477 9.14 26.2877 8.96 26.5037 8.72L27.8717 8.648L27.7277 10.016C27.9437 10.232 28.1717 10.364 28.4117 10.412C28.6757 10.436 28.9397 10.4 29.2037 10.304C29.4677 10.184 29.7197 10.016 29.9597 9.8C30.1997 9.56 30.4037 9.284 30.5717 8.972L32.6237 9.008C32.8877 8.984 33.1397 8.972 33.3797 8.972C33.6437 8.948 33.8957 8.936 34.1357 8.936C34.5197 8.936 34.8797 8.972 35.2157 9.044C35.5517 9.092 35.7437 9.176 35.7917 9.296C35.8877 9.728 36.0917 9.896 36.4037 9.8C36.4517 9.776 36.5357 9.86 36.6557 10.052C36.7997 10.22 37.0157 10.328 37.3037 10.376C37.4477 10.424 37.5437 10.508 37.5917 10.628C37.6637 10.724 37.7117 10.832 37.7357 10.952C37.7597 11.072 37.7837 11.18 37.8077 11.276C37.8317 11.348 37.8797 11.384 37.9517 11.384L40.0397 9.728L43.3877 9.188L46.4477 11.636L46.5197 12.14C46.5197 12.284 46.5077 12.428 46.4837 12.572C46.4837 12.692 46.4477 12.788 46.3757 12.86V16.1L46.4117 19.556L45.7637 23.552L45.4397 23.912ZM68.0874 23.228L63.0474 23.84L62.0034 22.148C62.0034 21.836 61.7634 21.848 61.2834 22.184C61.1634 22.256 61.0434 22.376 60.9234 22.544C60.8034 22.712 60.6834 22.88 60.5634 23.048C60.4914 23.144 60.4194 23.24 60.3474 23.336C60.2754 23.432 60.2034 23.54 60.1314 23.66C59.3874 24.212 58.6194 24.572 57.8274 24.74C57.0594 24.908 56.3994 24.8 55.8474 24.416C55.4394 24.368 55.1634 24.272 55.0194 24.128C54.9474 24.08 54.8514 23.996 54.7314 23.876L52.4274 23.732L51.4554 23.264L50.5554 20.996L50.7354 20.24L49.9434 17.072L51.4554 14.552L52.6794 13.436C53.1354 13.196 53.6634 13.004 54.2634 12.86C54.8634 12.716 55.4634 12.62 56.0634 12.572C56.6634 12.5 57.2394 12.488 57.7914 12.536C58.3434 12.56 58.7994 12.632 59.1594 12.752C59.1594 13.136 59.2794 13.388 59.5194 13.508C59.7594 13.628 60.2274 13.76 60.9234 13.904C61.1634 13.496 61.2834 13.004 61.2834 12.428C61.2834 11.828 61.1754 11.204 60.9594 10.556L60.3834 8.72C60.1914 8.648 59.8914 8.528 59.4834 8.36C59.0994 8.168 58.7754 8.012 58.5114 7.892L56.9634 8.144L55.3794 8.468L55.0194 7.892L55.4154 6.956L55.6674 6.38L56.1714 6.272L57.8274 5.984L59.3034 6.488L60.9234 6.236L64.0554 7.172L65.3874 9.188L65.8554 14.912L65.7474 16.712L66.5394 20.924L67.0074 21.14H68.1234L68.5914 22.4L68.0874 23.228ZM54.8754 17.36C54.7554 17.984 54.7554 18.512 54.8754 18.944C55.0194 19.376 55.2474 19.736 55.5594 20.024L56.0994 21.14C56.5314 21.284 56.9394 21.392 57.3234 21.464C57.7074 21.536 58.1034 21.548 58.5114 21.5C58.9434 21.428 59.3874 21.296 59.8434 21.104C60.3234 20.888 60.8754 20.576 61.4994 20.168L61.5714 18.332L60.9234 15.128C60.5874 15.008 60.2874 14.948 60.0234 14.948C59.7834 14.948 59.5434 14.972 59.3034 15.02C59.0154 15.092 58.6794 15.152 58.2954 15.2C57.9114 15.248 57.5154 15.308 57.1074 15.38C56.7234 15.428 56.3634 15.5 56.0274 15.596C55.7154 15.668 55.4874 15.776 55.3434 15.92L54.8754 17.36ZM84.2719 9.08V10.736H83.3359L81.9679 11.816C80.7919 11.984 79.8319 12.224 79.0879 12.536C78.3439 12.824 77.9959 13.232 78.0439 13.76C77.9959 13.88 77.9719 14.024 77.9719 14.192C77.9719 14.336 78.0559 14.408 78.2239 14.408L77.5039 18.008L77.1799 18.404V22.4L76.9639 24.416L76.2439 25.136L72.1399 24.848L71.2399 23.624L71.4919 22.976L71.3479 20.996L71.7799 17.36L72.1399 14.696C72.1399 14.624 72.1519 14.564 72.1759 14.516C72.1759 14.468 72.1759 14.408 72.1759 14.336C72.1999 14.264 72.2119 14.204 72.2119 14.156C72.3319 14.06 72.4039 13.844 72.4279 13.508C72.4759 13.172 72.4879 12.956 72.4639 12.86C72.4639 12.692 72.4519 12.536 72.4279 12.392C72.4279 12.248 72.3799 11.936 72.2839 11.456C72.2599 11.312 72.1759 11.144 72.0319 10.952C71.9119 10.736 71.7799 10.544 71.6359 10.376L72.1039 9.26H72.7879L76.4959 8.576L77.3959 9.008C77.3239 9.416 77.3119 9.764 77.3599 10.052C77.4319 10.316 77.5279 10.52 77.6479 10.664C77.7919 10.808 77.9479 10.904 78.1159 10.952C78.2839 10.976 78.4279 10.952 78.5479 10.88L79.1959 10.52C79.3159 10.472 79.3519 10.34 79.3039 10.124C79.2799 9.908 79.2919 9.632 79.3399 9.296L83.8039 8.504L84.2719 9.08ZM86.9261 12.068C86.8301 11.804 86.7581 11.456 86.7101 11.024C86.6621 10.568 86.6141 10.184 86.5661 9.872L87.2501 8.576C87.6821 8.504 87.9821 8.48 88.1501 8.504C88.3421 8.528 88.4861 8.564 88.5821 8.612C88.7261 8.588 88.9301 8.564 89.1941 8.54C89.4821 8.492 89.9141 8.42 90.4901 8.324C90.5381 7.916 90.6221 7.46 90.7421 6.956C90.8621 6.452 90.9461 5.888 90.9941 5.264L90.4901 4.76L90.4541 4.22L90.8501 3.284H95.1701L96.7901 3.356C96.9581 3.548 97.0301 3.776 97.0061 4.04C96.9821 4.28 96.9341 4.508 96.8621 4.724C96.7901 4.94 96.7181 5.12 96.6461 5.264C96.5981 5.384 96.6101 5.42 96.6821 5.372V7.604C96.5381 7.724 96.4301 7.868 96.3581 8.036C96.2861 8.18 96.2261 8.348 96.1781 8.54L96.2501 8.612L98.3381 8.54C98.4101 8.564 98.4821 8.588 98.5541 8.612C98.6261 8.636 98.7101 8.66 98.8061 8.684C99.0941 8.756 99.4661 8.792 99.9221 8.792L100.246 9.152L99.8501 10.88C99.7061 10.88 99.5141 10.904 99.2741 10.952C99.0341 10.976 98.7821 11.012 98.5181 11.06C98.2781 11.084 98.0501 11.108 97.8341 11.132C97.6421 11.156 97.5101 11.168 97.4381 11.168L95.9261 11.6C95.8301 11.864 95.7581 12.092 95.7101 12.284C95.6861 12.452 95.6741 12.62 95.6741 12.788C95.6741 12.932 95.6741 13.1 95.6741 13.292C95.6981 13.46 95.7101 13.676 95.7101 13.94L95.4581 18.512C95.3861 18.92 95.3621 19.292 95.3861 19.628C95.4341 19.964 95.4941 20.252 95.5661 20.492C95.6141 20.612 95.6621 20.732 95.7101 20.852C95.7581 20.972 95.8061 21.092 95.8541 21.212L96.1781 22.148L96.3221 22.328L99.8141 21.248L101.146 20.924L101.938 21.644L101.074 22.796L100.246 23.228L99.5261 23.372L95.3861 25.208C95.2661 25.208 95.1701 25.196 95.0981 25.172C94.9781 25.172 94.8341 25.172 94.6661 25.172C94.5221 25.148 94.3541 25.124 94.1621 25.1C93.2981 25.028 92.6501 25.052 92.2181 25.172C92.2181 24.5 91.9541 24.044 91.4261 23.804C91.1621 23.636 90.9221 23.492 90.7061 23.372C90.5141 23.252 90.3341 23.156 90.1661 23.084C90.1661 22.676 90.1661 22.4 90.1661 22.256C90.1901 22.112 90.1661 21.92 90.0941 21.68C90.0461 21.56 90.0341 21.296 90.0581 20.888C90.0821 20.456 90.1061 19.916 90.1301 19.268C90.1781 18.596 90.1541 18.056 90.0581 17.648C89.9621 17.216 89.8181 17 89.6261 17C89.6501 16.688 89.6621 16.376 89.6621 16.064C89.6861 15.752 89.7101 15.476 89.7341 15.236C89.7581 15.116 89.7701 14.984 89.7701 14.84C89.7701 14.696 89.7701 14.564 89.7701 14.444C89.8181 14.348 89.8541 14.276 89.8781 14.228C89.9021 14.156 89.9261 14.108 89.9501 14.084C89.9741 14.036 90.0821 13.976 90.2741 13.904C90.4901 13.808 90.6821 13.556 90.8501 13.148C91.4021 12.764 91.6421 12.416 91.5701 12.104C91.4981 11.792 91.0781 11.576 90.3101 11.456C90.1421 11.48 89.9981 11.528 89.8781 11.6C89.7821 11.648 89.7341 11.78 89.7341 11.996L87.5741 12.464L86.9261 12.068ZM115.831 1.34C116.023 1.292 116.239 1.244 116.479 1.196C116.719 1.124 116.971 1.052 117.235 0.979998C117.715 0.883998 118.051 0.799998 118.243 0.727999C118.435 0.631999 118.651 0.571999 118.891 0.547999C119.155 0.499999 119.371 0.475998 119.539 0.475998C119.731 0.451998 119.995 0.439999 120.331 0.439999C120.355 0.535999 120.391 0.643999 120.439 0.763999C120.511 0.859999 120.547 0.967999 120.547 1.088C120.811 1.664 121.063 1.988 121.303 2.06C121.543 2.132 121.759 2.096 121.951 1.952C122.143 1.808 122.299 1.628 122.419 1.412C122.563 1.196 122.659 1.088 122.707 1.088H125.659L128.827 3.284C129.019 3.404 129.223 3.56 129.439 3.752C129.655 3.944 129.895 4.172 130.159 4.436C130.663 4.964 130.999 5.216 131.167 5.192L130.951 6.92C130.951 6.944 130.987 6.968 131.059 6.992C131.131 7.016 131.203 7.088 131.275 7.208C131.371 7.304 131.443 7.46 131.491 7.676C131.563 7.892 131.575 8.204 131.527 8.612C131.455 9.452 131.455 10.196 131.527 10.844C131.599 11.492 131.635 12.02 131.635 12.428C131.635 12.452 131.383 12.584 130.879 12.824C130.375 13.016 130.123 13.376 130.123 13.904C130.003 13.88 129.679 13.892 129.151 13.94C128.647 13.964 128.131 14.096 127.603 14.336L126.055 14.948H123.859C123.403 14.948 123.007 15.008 122.671 15.128C122.335 15.224 122.059 15.332 121.843 15.452C121.627 15.572 121.459 15.692 121.339 15.812C121.219 15.908 120.955 15.956 120.547 15.956C120.595 16.22 120.643 16.4 120.691 16.496C120.619 16.712 120.511 16.988 120.367 17.324C120.247 17.636 120.187 17.852 120.187 17.972C120.187 18.116 120.187 18.32 120.187 18.584C120.211 18.848 120.235 19.184 120.259 19.592C120.283 20.024 120.187 20.384 119.971 20.672C119.755 20.936 119.647 21.152 119.647 21.32C119.719 21.632 119.779 21.98 119.827 22.364C119.899 22.724 119.971 23.084 120.043 23.444L119.503 24.488C119.455 24.512 119.407 24.524 119.359 24.524C119.335 24.524 119.299 24.536 119.251 24.56C118.723 24.728 118.315 24.812 118.027 24.812C117.979 24.812 117.883 24.812 117.739 24.812C117.619 24.788 117.475 24.764 117.307 24.74C117.139 24.716 116.983 24.704 116.839 24.704C116.695 24.68 116.599 24.668 116.551 24.668C116.503 24.668 116.395 24.728 116.227 24.848C116.083 24.968 115.915 25.076 115.723 25.172L114.859 24.812C114.811 24.428 114.787 23.996 114.787 23.516C114.811 23.036 114.799 22.628 114.751 22.292C114.823 22.196 114.919 22.004 115.039 21.716C115.159 21.404 115.195 20.984 115.147 20.456C115.099 19.904 115.111 19.46 115.183 19.124C115.255 18.788 115.291 18.524 115.291 18.332C115.291 18.26 115.255 18.068 115.183 17.756C115.135 17.42 115.123 17.156 115.147 16.964C115.171 16.892 115.231 16.796 115.327 16.676C115.423 16.556 115.471 16.4 115.471 16.208C115.447 15.44 115.435 14.828 115.435 14.372C115.435 13.916 115.387 13.448 115.291 12.968C115.267 12.872 115.279 12.776 115.327 12.68C115.399 12.56 115.435 12.404 115.435 12.212C115.435 12.02 115.507 11.576 115.651 10.88C115.819 10.16 115.831 9.164 115.687 7.892C115.567 6.644 115.471 5.672 115.399 4.976C115.327 4.28 115.303 3.86 115.327 3.716C115.375 3.452 115.387 3.248 115.363 3.104C115.339 2.96 115.327 2.744 115.327 2.456L115.831 1.34ZM125.659 12.608C125.659 12.488 125.899 12.188 126.379 11.708C126.883 11.252 127.135 10.94 127.135 10.772L126.667 7.496L126.379 6.38L123.283 2.924H121.915L121.195 2.78L120.907 2.924C120.859 3.068 120.835 3.896 120.835 5.408C120.859 6.992 120.859 7.892 120.835 8.108C120.355 8.372 120.211 8.912 120.403 9.728C120.619 10.52 120.607 11.144 120.367 11.6C120.295 11.672 120.259 11.78 120.259 11.924C120.259 12.26 120.259 12.512 120.259 12.68C120.283 12.824 120.271 13.052 120.223 13.364C120.223 13.388 120.235 13.46 120.259 13.58C120.307 13.7 120.343 13.88 120.367 14.12L121.771 13.724C121.771 13.964 122.239 13.844 123.175 13.364C123.655 13.1 124.027 12.908 124.291 12.788C124.555 12.668 124.711 12.608 124.759 12.608H125.659ZM141.799 19.628L141.943 22.184L141.799 23.516V24.2L141.115 25.172L139.927 25.46L136.831 26.036C136.567 26.084 136.351 26.048 136.183 25.928C136.039 25.784 135.967 25.436 135.967 24.884V24.812L136.543 22.076L136.651 19.628V18.26L137.083 15.164C137.059 15.044 137.035 14.816 137.011 14.48C136.987 14.144 136.951 13.724 136.903 13.22C136.879 12.956 136.867 12.716 136.867 12.5C136.867 12.284 136.855 12.092 136.831 11.924V11.168C136.831 11.192 136.915 11.12 137.083 10.952C137.251 10.76 137.395 10.532 137.515 10.268C137.635 9.98 137.683 9.668 137.659 9.332C137.635 8.996 137.431 8.684 137.047 8.396L137.659 2.168C137.827 2.072 137.839 1.784 137.695 1.304L138.415 0.583999L138.883 0.512C138.979 0.536 139.135 0.559999 139.351 0.583999C139.567 0.583999 139.795 0.595999 140.035 0.619998C140.275 0.619998 140.503 0.631998 140.719 0.655998C140.959 0.655998 141.139 0.667999 141.259 0.692C141.475 0.739999 141.751 0.775999 142.087 0.799998C142.423 0.799998 142.663 0.835999 142.807 0.907999L143.527 1.304V1.988C143.599 2.132 143.587 2.336 143.491 2.6C143.419 2.84 143.395 3.128 143.419 3.464C143.419 3.632 143.407 3.824 143.383 4.04C143.359 4.256 143.335 4.46 143.311 4.652C143.311 4.844 143.299 5.012 143.275 5.156C143.251 5.3 143.239 5.384 143.239 5.408C143.239 5.456 143.227 5.516 143.203 5.588L143.167 5.876C143.167 5.972 143.143 6.056 143.095 6.128C143.071 6.2 143.047 6.224 143.023 6.2C142.999 6.2 142.939 6.272 142.843 6.416C142.771 6.56 142.687 6.74 142.591 6.956C142.519 7.148 142.459 7.352 142.411 7.568C142.363 7.784 142.351 7.952 142.375 8.072C142.399 8.192 142.423 8.384 142.447 8.648C142.471 8.888 142.495 9.224 142.519 9.656C142.519 9.872 142.519 10.064 142.519 10.232C142.543 10.4 142.555 10.544 142.555 10.664C142.555 10.808 142.567 10.916 142.591 10.988L142.339 13.112L142.411 14.156C142.075 14.828 141.919 15.296 141.943 15.56C141.991 15.824 142.135 16.04 142.375 16.208L141.799 19.628ZM165.358 9.8L164.674 14.84L164.782 16.892L164.602 19.052L164.062 21.14L161.974 24.236C161.062 24.932 160.078 25.4 159.022 25.64C157.966 25.88 156.826 25.94 155.602 25.82L153.91 25.064H152.938C152.554 25.064 151.882 24.692 150.922 23.948C150.514 23.636 150.166 23.36 149.878 23.12C149.806 23.072 149.734 23.024 149.662 22.976C149.614 22.928 149.566 22.88 149.518 22.832C149.518 22.64 149.494 22.4 149.446 22.112C149.398 21.824 149.326 21.464 149.23 21.032C149.158 20.6 149.086 20.264 149.014 20.024C148.966 19.76 148.93 19.568 148.906 19.448C148.906 19.376 148.918 19.292 148.942 19.196C148.966 19.076 148.966 18.968 148.942 18.872C148.942 18.752 148.906 18.656 148.834 18.584C148.762 18.512 148.63 18.476 148.438 18.476L148.546 16.46C148.642 16.196 148.69 16.016 148.69 15.92C148.69 15.824 148.678 15.74 148.654 15.668C148.63 15.596 148.618 15.5 148.618 15.38C148.618 15.26 148.678 15.056 148.798 14.768L148.978 13.436C149.194 13.508 149.362 13.448 149.482 13.256C149.626 13.064 149.71 12.836 149.734 12.572C149.782 12.284 149.77 12.032 149.698 11.816C149.626 11.576 149.482 11.456 149.266 11.456C149.17 11.264 149.11 11.06 149.086 10.844C149.062 10.604 149.074 10.484 149.122 10.484C149.122 10.34 149.11 10.172 149.086 9.98C149.062 9.788 149.05 9.428 149.05 8.9L150.094 8.036C150.382 8.06 150.742 8.084 151.174 8.108C151.606 8.108 152.05 8.108 152.506 8.108C152.986 8.108 153.442 8.12 153.874 8.144C154.306 8.144 154.654 8.168 154.918 8.216L155.206 8.684C155.062 9.164 154.99 9.512 154.99 9.728C154.966 9.872 154.966 9.992 154.99 10.088L154.918 11.744C154.846 11.888 154.774 12.104 154.702 12.392C154.654 12.656 154.606 12.956 154.558 13.292C154.534 13.604 154.51 13.928 154.486 14.264C154.462 14.6 154.45 14.888 154.45 15.128C154.33 15.536 154.21 15.968 154.09 16.424C153.97 16.856 153.958 17.264 154.054 17.648C154.102 17.768 154.126 17.924 154.126 18.116C154.15 18.284 154.234 18.608 154.378 19.088C154.33 19.232 154.294 19.412 154.27 19.628C154.246 19.844 154.234 20.072 154.234 20.312C154.258 20.528 154.306 20.756 154.378 20.996C154.474 21.212 154.606 21.392 154.774 21.536L156.142 22.616L158.302 22.796C158.542 23.108 158.758 23.264 158.95 23.264C159.142 23.24 159.298 22.988 159.418 22.508L160.678 21.752L161.686 19.088L161.722 17.432V15.668C162.202 15.332 162.466 14.972 162.514 14.588C162.562 14.204 162.31 13.748 161.758 13.22L161.65 9.08L162.37 8.432L164.566 8.612L165.358 9.8ZM183.571 17.828C183.331 17.996 182.995 18.08 182.563 18.08C182.227 18.08 181.939 18.08 181.699 18.08C181.483 18.08 181.303 18.068 181.159 18.044L180.151 18.692C180.079 18.716 179.947 18.752 179.755 18.8C179.635 18.848 179.479 18.896 179.287 18.944C179.119 18.992 178.915 19.064 178.675 19.16C178.195 19.28 177.751 19.436 177.343 19.628C176.959 19.82 176.599 20.024 176.263 20.24C176.095 20.432 175.891 20.552 175.651 20.6C175.411 20.624 175.303 20.684 175.327 20.78C175.207 21.116 175.111 21.416 175.039 21.68C174.967 21.944 174.931 22.22 174.931 22.508C174.931 22.844 174.931 23.144 174.931 23.408C174.931 23.672 174.907 23.876 174.859 24.02L178.963 22.472C179.227 22.52 179.431 22.544 179.575 22.544C179.719 22.544 179.851 22.544 179.971 22.544C180.091 22.568 180.223 22.544 180.367 22.472C180.511 22.376 180.715 22.268 180.979 22.148L181.807 22.184L184.075 22.868L184.435 23.372C184.483 23.588 184.579 23.9 184.723 24.308C184.891 24.692 185.011 25.076 185.083 25.46C185.131 25.652 185.179 25.868 185.227 26.108C185.299 26.372 185.383 26.672 185.479 27.008C185.647 27.68 185.791 28.052 185.911 28.124L185.587 29.06L185.911 29.96L185.731 30.644L183.787 32.12C183.691 32.096 183.607 32.072 183.535 32.048C183.463 32.024 183.391 32 183.319 31.976C183.199 31.928 183.079 31.892 182.959 31.868C182.839 31.844 182.743 31.832 182.671 31.832L179.863 33.128C179.767 33.104 179.659 33.08 179.539 33.056C179.443 33.056 179.335 33.032 179.215 32.984C178.999 32.936 178.711 32.876 178.351 32.804C178.015 32.756 177.619 32.684 177.163 32.588C176.707 32.492 176.179 32.396 175.579 32.3C175.003 32.204 174.439 32.12 173.887 32.048C173.359 31.976 172.867 31.928 172.411 31.904C171.979 31.88 171.679 31.88 171.511 31.904L169.891 31.58L169.567 31.292L168.991 28.952L169.171 28.232C169.747 27.944 170.239 27.536 170.647 27.008C171.055 26.504 171.283 25.868 171.331 25.1C171.355 24.692 171.367 24.356 171.367 24.092C171.367 23.828 171.367 23.612 171.367 23.444C171.367 23.276 171.355 23.144 171.331 23.048C171.331 22.952 171.331 22.844 171.331 22.724L171.619 21.104L172.159 20.636L172.339 18.8C172.267 18.704 172.159 18.56 172.015 18.368C171.895 18.152 171.751 17.924 171.583 17.684C171.415 17.444 171.247 17.216 171.079 17C170.935 16.76 170.803 16.556 170.683 16.388L170.791 14.516L172.447 11.096L173.383 9.728L176.911 8.108L180.763 9.656L181.663 9.224C181.735 9.224 181.807 9.212 181.879 9.188C181.951 9.164 182.047 9.152 182.167 9.152C182.287 9.128 182.443 9.092 182.635 9.044C182.995 8.996 183.307 8.864 183.571 8.648C183.835 8.432 184.087 8.144 184.327 7.784C184.519 8.024 184.699 8.24 184.867 8.432C185.035 8.624 185.191 8.804 185.335 8.972C185.431 9.068 185.515 9.164 185.587 9.26C185.659 9.332 185.731 9.404 185.803 9.476V11.348L185.443 11.708L182.923 12.248L183.247 13.4L183.355 15.056L183.967 16.64L183.571 17.828ZM175.111 17.576L178.711 16.712C178.879 16.544 178.999 16.292 179.071 15.956C179.167 15.596 179.047 15.248 178.711 14.912L177.775 13.256L176.695 11.096H175.399L175.327 12.392C174.703 12.272 174.295 12.56 174.103 13.256C173.983 13.616 173.887 13.916 173.815 14.156C173.743 14.372 173.695 14.564 173.671 14.732L175.111 17.576ZM174.355 29.888L177.991 30.392C179.335 30.512 180.211 30.512 180.619 30.392C180.643 30.272 180.655 30.14 180.655 29.996C180.679 29.876 180.679 29.756 180.655 29.636C180.655 29.396 180.547 29.108 180.331 28.772C180.115 28.46 180.007 28.148 180.007 27.836C180.007 27.716 180.043 27.644 180.115 27.62C180.187 27.62 180.199 27.56 180.151 27.44C180.127 27.344 180.103 27.176 180.079 26.936C180.079 26.696 180.067 26.444 180.043 26.18C180.019 25.916 179.983 25.664 179.935 25.424C179.911 25.184 179.863 25.028 179.791 24.956C179.647 25.004 179.407 25.088 179.071 25.208C178.759 25.328 178.411 25.448 178.027 25.568C177.667 25.688 177.319 25.808 176.983 25.928C176.647 26.024 176.407 26.084 176.263 26.108C176.047 26.54 175.759 26.804 175.399 26.9C175.063 27.02 174.691 27.176 174.283 27.368C174.355 27.56 174.295 27.752 174.103 27.944C173.935 28.064 173.491 28.28 172.771 28.592C172.027 28.928 171.607 29.252 171.511 29.564L174.355 29.888Z"
      fill="#F9A8A8"
    />
  </svg>